<svg xmlns="http://www.w3.org/2000/svg" width="1728" height="1728" viewBox="0 0 1728 1728"><path d="M1188.346 795.994c-38.074-66.24-97.057-141.217-182.17-181.594h12.653c15.896 0 28.8-12.902 28.8-28.8 0-15.898-12.903-28.8-28.8-28.8h-42.606c64.358-38.19 125.396-91.393 125.396-144.365 0-44.583-31.72-82.963-74.918-92.122-9.332-57.216-58.272-99.533-116.698-99.533-33.638 0-65.184 14.266-87.782 39.417-17.722-9.945-37.536-15.148-57.85-15.148-65.53 0-118.828 53.298-118.828 118.828 0 60.46 74.188 141.274 143.596 192.903h-60.806c-15.917 0-28.8 12.903-28.8 28.8s12.883 28.8 28.8 28.8h12.652c-85.113 40.38-144.096 115.355-182.17 181.595-68.294 118.79-107.462 275.347-107.462 429.542 0 177.16 173.626 300.864 422.228 300.864 248.582 0 422.208-123.704 422.208-300.863.018-154.176-39.15-310.733-107.444-429.523zM982.58 985.958c-15.13 5.05-31.412-3.11-36.462-18.163-6.298-18.835-29.088-40.838-72.5-40.838-35.73 0-56.908 23.923-59.365 47.577-3.053 29.51 21.33 52.608 65.26 61.824 89.28 18.7 115.47 78.548 110.746 124.11-4.877 47.27-40.858 84.42-87.84 95.52v33.157c0 15.897-12.903 28.8-28.8 28.8s-28.8-12.902-28.8-28.8v-31.968c-55.854-9.504-87.668-45.792-98.344-77.606-5.05-15.09 3.092-31.41 18.163-36.46 15.167-5.03 31.41 3.11 36.46 18.163 6.298 18.836 29.088 40.84 72.5 40.84 35.73 0 56.908-23.924 59.366-47.58 3.053-29.51-21.332-52.606-65.262-61.822-89.28-18.7-115.47-78.547-110.745-124.108 4.876-47.27 40.856-84.422 87.84-95.52v-33.16c0-15.896 12.9-28.8 28.8-28.8 15.897 0 28.8 12.903 28.8 28.8v31.97c55.853 9.504 87.667 45.792 98.342 77.606 5.05 15.07-3.09 31.392-18.163 36.46z"/></svg>