{
  "accessors": [
    {
      "bufferView": 2,
      "componentType": 5126,
      "count": 16959,
      "max": [
        0.007450551260262728,
        0.0024986048229038715,
        0.007450553588569164
      ],
      "min": [
        -0.007450553588569164,
        1.3954522728454322e-06,
        -0.007450549863278866
      ],
      "type": "VEC3"
    },
    {
      "bufferView": 2,
      "byteOffset": 203508,
      "componentType": 5126,
      "count": 16959,
      "max": [
        1.0,
        1.0,
        1.0
      ],
      "min": [
        -1.0,
        -1.0,
        -1.0
      ],
      "type": "VEC3"
    },
    {
      "bufferView": 1,
      "componentType": 5126,
      "count": 16959,
      "max": [
        1.0,
        0.966902494430542
      ],
      "min": [
        0.003586230333894491,
        0.0038937346544116735
      ],
      "type": "VEC2"
    },
    {
      "bufferView": 0,
      "componentType": 5125,
      "count": 72192,
      "type": "SCALAR"
    },
    {
      "bufferView": 2,
      "byteOffset": 407016,
      "componentType": 5126,
      "count": 5549,
      "max": [
        0.002741948002949357,
        0.0012114231940358877,
        0.004923681262880564
      ],
      "min": [
        -0.0025843444745987654,
        -0.0012114231940358877,
        -0.005097007844597101
      ],
      "type": "VEC3"
    },
    {
      "bufferView": 2,
      "byteOffset": 473604,
      "componentType": 5126,
      "count": 5549,
      "max": [
        0.9951823949813843,
        1.0,
        0.995185911655426
      ],
      "min": [
        -0.9951856732368469,
        -1.0,
        -0.9951868653297424
      ],
      "type": "VEC3"
    },
    {
      "bufferView": 1,
      "byteOffset": 135672,
      "componentType": 5126,
      "count": 5549,
      "max": [
        1.0,
        1.0
      ],
      "min": [
        0.0,
        0.0
      ],
      "type": "VEC2"
    },
    {
      "bufferView": 0,
      "byteOffset": 288768,
      "componentType": 5125,
      "count": 25188,
      "type": "SCALAR"
    }
  ],
  "asset": {
    "extras": {
      "author": "robertrestupambudi (https://sketchfab.com/robertrestupambudi)",
      "license": "SKETCHFAB Standard (https://sketchfab.com/licenses)",
      "source": "https://sketchfab.com/3d-models/gold-coin-dollar-3c7c7eeb7cef4c2db3bd931295492fe2",
      "title": "Gold Coin Dollar"
    },
    "generator": "Sketchfab-12.68.0",
    "version": "2.0"
  },
  "bufferViews": [
    {
      "buffer": 0,
      "byteLength": 389520,
      "name": "floatBufferViews",
      "target": 34963
    },
    {
      "buffer": 0,
      "byteLength": 180064,
      "byteOffset": 389520,
      "byteStride": 8,
      "name": "floatBufferViews",
      "target": 34962
    },
    {
      "buffer": 0,
      "byteLength": 540192,
      "byteOffset": 569584,
      "byteStride": 12,
      "name": "floatBufferViews",
      "target": 34962
    }
  ],
  "buffers": [
    {
      "byteLength": 1109776,
      "uri": "coin.bin"
    }
  ],
  "materials": [
    {
      "doubleSided": true,
      "name": "Material.001",
      "pbrMetallicRoughness": {
        "baseColorFactor": [
          0.8,
          0.422939,
          0.0490686,
          1.0
        ],
        "roughnessFactor": 0.2
      }
    }
  ],
  "meshes": [
    {
      "name": "Object_0",
      "primitives": [
        {
          "attributes": {
            "NORMAL": 1,
            "POSITION": 0,
            "TEXCOORD_0": 2
          },
          "indices": 3,
          "material": 0,
          "mode": 4
        }
      ]
    },
    {
      "name": "Object_1",
      "primitives": [
        {
          "attributes": {
            "NORMAL": 5,
            "POSITION": 4,
            "TEXCOORD_0": 6
          },
          "indices": 7,
          "material": 0,
          "mode": 4
        }
      ]
    }
  ],
  "nodes": [
    {
      "children": [
        1
      ],
      "matrix": [
        95.16382598876953,
        3.398061864329293e-30,
        -1.5303510145975297e-14,
        0.0,
        2.345969434806112e-30,
        95.16382598876953,
        4.2261228289661515e-14,
        0.0,
        1.5303510145975297e-14,
        -4.2261228289661515e-14,
        95.16382598876953,
        0.0,
        -2.0101481501773636e-19,
        0.0012499941512942316,
        -0.0012500057928264139,
        1.0
      ],
      "name": "Sketchfab_model"
    },
    {
      "children": [
        2
      ],
      "name": "root"
    },
    {
      "children": [
        3
      ],
      "matrix": [
        1.0,
        0.0,
        0.0,
        0.0,
        0.0,
        2.220446049250313e-16,
        1.0,
        0.0,
        0.0,
        -1.0,
        2.220446049250313e-16,
        0.0,
        0.0,
        0.0,
        0.0,
        1.0
      ],
      "name": "GLTF_SceneRootNode"
    },
    {
      "children": [
        4,
        5
      ],
      "name": "Coin Dollar 1,5 cm_2"
    },
    {
      "mesh": 0,
      "name": "Object_4"
    },
    {
      "children": [
        6
      ],
      "matrix": [
        1.0,
        0.0,
        0.0,
        0.0,
        0.0,
        1.0,
        0.0,
        0.0,
        0.0,
        0.0,
        1.0,
        0.0,
        0.0,
        0.001249999855645001,
        0.0,
        1.0
      ],
      "name": "Curve.001_1"
    },
    {
      "mesh": 1,
      "name": "Object_6"
    }
  ],
  "scene": 0,
  "scenes": [
    {
      "name": "Sketchfab_Scene",
      "nodes": [
        0
      ]
    }
  ]
}
