<?xml version="1.0" encoding="UTF-8"?><svg id="Layer_1" xmlns="http://www.w3.org/2000/svg" viewBox="0 0 2400 2400"><defs><style>.cls-1,.cls-2,.cls-3,.cls-4{stroke-width:0px;}.cls-5{fill:#001745;stroke:#00128c;}.cls-5,.cls-6{stroke-miterlimit:10;stroke-width:200px;}.cls-2{fill:#2a0073;}.cls-3{fill:#03002e;}.cls-4{fill:#030017;}.cls-6{fill:none;stroke:#2b00bf;}</style></defs><rect class="cls-4" x=".5" y=".5" width="2399" height="2399"/><path class="cls-1" d="m2399,1v2398H1V1h2398m1-1H0v2400h2400V0h0Z"/><polygon class="cls-2" points="384.74 1670.69 384.74 729.31 1200 258.62 2015.26 729.31 2015.26 1670.69 1200 2141.38 384.74 1670.69"/><path class="cls-1" d="m1200,259.2l814.76,470.4v940.8l-814.76,470.4-814.76-470.4v-940.8l814.76-470.4m0-1.15l-815.76,470.98v941.96l815.76,470.98,815.76-470.98v-941.96l-815.76-470.98h0Z"/><polygon class="cls-3" points="486.49 1611.94 486.49 788.06 1200 376.11 1913.51 788.06 1913.51 1611.94 1200 2023.89 486.49 1611.94"/><path class="cls-1" d="m1200,376.69l713.01,411.65v823.31l-713.01,411.65-713.01-411.65v-823.31l713.01-411.65m0-1.15l-714.01,412.23v824.46l714.01,412.23,714.01-412.23v-824.46l-714.01-412.23h0Z"/><path class="cls-5" d="m738.89,1713.91c59.04,165.42,243.36,286.09,461.6,286.09,265.87,0,481.4-179.09,481.4-400,0-77.84-27.6-154.85-79.17-219.85-45.06-56.81-107.56-103.73-180.2-135.15-42.11-18.22-79.71-33.74-127.45-40.22-50.99-6.92-102.83-7.38-154.08-12.38-70.02-6.84-134.42-21.46-194.58-52.57-140.14-72.5-227.33-202.63-227.33-339.82,0-220.91,215.53-400,481.4-400,220.11,0,405.73,122.75,463.09,290.36"/><path class="cls-6" d="m759.37,1677.58c59.04,165.42,243.36,286.09,461.6,286.09,265.87,0,481.4-179.09,481.4-400,0-77.84-27.6-154.85-79.17-219.85-45.06-56.81-107.56-103.73-180.2-135.15-42.11-18.22-79.71-33.74-127.45-40.22-50.99-6.92-102.83-7.38-154.08-12.38-70.02-6.84-134.42-21.46-194.58-52.57-140.14-72.5-227.33-202.63-227.33-339.82,0-220.91,215.53-400,481.4-400,220.11,0,405.73,122.75,463.09,290.36"/></svg>