<?xml version="1.0" encoding="UTF-8"?><svg id="Layer_1" xmlns="http://www.w3.org/2000/svg" viewBox="0 0 1631.52 1883.92"><defs><style>.cls-1,.cls-2,.cls-3{stroke-width:0px;}.cls-4{fill:#001745;stroke:#00128c;}.cls-4,.cls-5{stroke-miterlimit:10;stroke-width:200px;}.cls-2{fill:#2a0073;}.cls-3{fill:#03002e;}.cls-5{fill:none;stroke:#2b00bf;}</style></defs><polygon class="cls-2" points=".5 1412.65 .5 471.27 815.76 .58 1631.02 471.27 1631.02 1412.65 815.76 1883.34 .5 1412.65"/><path class="cls-1" d="m815.76,1.15l814.76,470.4v940.8l-814.76,470.4L1,1412.36V471.56L815.76,1.15m0-1.15L0,470.98v941.96l815.76,470.98,815.76-470.98V470.98L815.76,0h0Z"/><polygon class="cls-3" points="102.26 1353.9 102.26 530.02 815.76 118.07 1529.27 530.02 1529.27 1353.9 815.76 1765.84 102.26 1353.9"/><path class="cls-1" d="m815.76,118.65l713.01,411.65v823.31l-713.01,411.65L102.76,1353.61v-823.31L815.76,118.65m0-1.15L101.76,529.73v824.46l714.01,412.23,714.01-412.23v-824.46L815.76,117.5h0Z"/><path class="cls-4" d="m354.65,1455.87c59.04,165.42,243.36,286.09,461.6,286.09,265.87,0,481.4-179.09,481.4-400,0-77.84-27.6-154.85-79.17-219.85-45.06-56.81-107.56-103.73-180.2-135.15-42.11-18.22-79.71-33.74-127.45-40.22-50.99-6.92-102.83-7.38-154.08-12.38-70.02-6.84-134.42-21.46-194.58-52.57-140.14-72.5-227.33-202.63-227.33-339.82,0-220.91,215.53-400,481.4-400,220.11,0,405.73,122.75,463.09,290.36"/><path class="cls-5" d="m375.13,1419.54c59.04,165.42,243.36,286.09,461.6,286.09,265.87,0,481.4-179.09,481.4-400,0-77.84-27.6-154.85-79.17-219.85-45.06-56.81-107.56-103.73-180.2-135.15-42.11-18.22-79.71-33.74-127.45-40.22-50.99-6.92-102.83-7.38-154.08-12.38-70.02-6.84-134.42-21.46-194.58-52.57-140.14-72.5-227.33-202.63-227.33-339.82,0-220.91,215.53-400,481.4-400,220.11,0,405.73,122.75,463.09,290.36"/></svg>